<svg fill="#000000" width="256px" height="256px" viewBox="-1.2 -1.2 26.40 26.40" xmlns="http://www.w3.org/2000/svg" preserveAspectRatio="xMinYMin" class="jam jam-task-list-f" stroke="#000000" stroke-width="0.00024000000000000003"><g id="SVGRepo_bgCarrier" stroke-width="0" transform="translate(3.24,3.24), scale(0.73)"><path transform="translate(-1.2, -1.2), scale(0.825)" d="M16,29.25069772912299C19.6374818221073,29.42682988785638,23.6621270052152,28.790784285299345,25.991153929134004,25.991153929134008C28.217111635751706,23.315418967469657,26.868523383725655,19.477137061726857,27.023323741248426,16C27.191660915575874,12.2187979595962,29.10967826903223,8.166611149607848,26.922205979540497,5.077794020459505C24.545371685015574,1.721588541951868,20.1124624813257,0.40123251167747426,16.000000000000004,0.43453141981187926C11.918923513234118,0.467576193263159,8.178031634726512,2.406861147001116,5.253249141664698,5.2532491416646945C2.283320069744785,8.143573627457668,-0.3439617491694778,11.870581251067353,0.0058312201324639545,15.999999999999996C0.3395714904053081,19.939911462739847,3.886898436619495,22.545714833718936,6.931731039621024,25.068268960378973C9.596502320880852,27.275953476605153,12.543576148900172,29.08333266060449,16,29.25069772912299" fill="#ffffff" strokewidth="0"></path></g><g id="SVGRepo_tracerCarrier" stroke-linecap="round" stroke-linejoin="round"></g><g id="SVGRepo_iconCarrier"><path d="M6 0h8a6 6 0 0 1 6 6v8a6 6 0 0 1-6 6H6a6 6 0 0 1-6-6V6a6 6 0 0 1 6-6zm6 9a1 1 0 0 0 0 2h3a1 1 0 1 0 0-2h-3zm-2 4a1 1 0 0 0 0 2h5a1 1 0 1 0 0-2h-5zm0-8a1 1 0 1 0 0 2h5a1 1 0 0 0 0-2h-5zm-4.172 5.243l-.707-.707a1 1 0 1 0-1.414 1.414l1.414 1.414a1 1 0 0 0 1.415 0l2.828-2.828A1 1 0 0 0 7.95 8.12l-2.122 2.122z"></path></g></svg>